<svg xmlns="http://www.w3.org/2000/svg" width="360" height="360" viewBox="0 0 360 360" role="img" aria-labelledby="title"><title id="title">EFORGE — símbolo F Forjado</title><path fill="#111115" transform="translate(30 24) scale(1)" d="M72 12 H290 Q303 12 296 24 L253 83 Q249 89 239 89 H104 Q94 89 88 97 L31 169 Q27 175 27 185 L33 238 L42 180 L101 114 Q106 109 114 109 H217 Q229 109 223 120 L183 176 Q179 182 171 182 H97 V250 Q97 257 92 263 L60 297 Q56 302 48 302 H10 Q2 302 2 294 V88 Q2 79 8 72 L59 18 Q64 12 72 12 Z"/></svg>